<svg width="800" height="450" xmlns="http://www.w3.org/2000/svg" xmlns:xlink="http://www.w3.org/1999/xlink" overflow="hidden"><defs><clipPath id="clip0"><rect x="0" y="0" width="800" height="450"/></clipPath><clipPath id="clip1"><rect x="108" y="117" width="583" height="295"/></clipPath><clipPath id="clip2"><rect x="108" y="117" width="583" height="295"/></clipPath><clipPath id="clip3"><rect x="108" y="117" width="583" height="295"/></clipPath><clipPath id="clip4"><rect x="108" y="117" width="583" height="295"/></clipPath><clipPath id="clip5"><rect x="108" y="117" width="583" height="295"/></clipPath><clipPath id="clip6"><rect x="108" y="117" width="583" height="295"/></clipPath><clipPath id="clip7"><rect x="147" y="126" width="534" height="267"/></clipPath><clipPath id="clip8"><rect x="147" y="126" width="534" height="267"/></clipPath><clipPath id="clip9"><rect x="147" y="126" width="534" height="267"/></clipPath><clipPath id="clip10"><rect x="108" y="117" width="583" height="295"/></clipPath><clipPath id="clip11"><rect x="108" y="117" width="583" height="295"/></clipPath><clipPath id="clip12"><rect x="108" y="117" width="583" height="295"/></clipPath><clipPath id="clip13"><rect x="108" y="117" width="583" height="295"/></clipPath><clipPath id="clip14"><rect x="108" y="117" width="583" height="295"/></clipPath><clipPath id="clip15"><rect x="108" y="117" width="583" height="295"/></clipPath><clipPath id="clip16"><rect x="108" y="117" width="583" height="295"/></clipPath><clipPath id="clip17"><rect x="108" y="117" width="583" height="295"/></clipPath><clipPath id="clip18"><rect x="108" y="117" width="583" height="295"/></clipPath><clipPath id="clip19"><rect x="108" y="117" width="583" height="295"/></clipPath><clipPath id="clip20"><rect x="108" y="117" width="583" height="295"/></clipPath><clipPath id="clip21"><rect x="108" y="117" width="583" height="295"/></clipPath><clipPath id="clip22"><rect x="108" y="117" width="583" height="295"/></clipPath><clipPath id="clip23"><rect x="108" y="117" width="583" height="295"/></clipPath><clipPath id="clip24"><rect x="108" y="117" width="583" height="295"/></clipPath><clipPath id="clip25"><rect x="108" y="117" width="583" height="295"/></clipPath><clipPath id="clip26"><rect x="108" y="117" width="583" height="295"/></clipPath><clipPath id="clip27"><rect x="108" y="117" width="583" height="295"/></clipPath><clipPath id="clip28"><rect x="108" y="117" width="583" height="295"/></clipPath><clipPath id="clip29"><rect x="108" y="117" width="583" height="295"/></clipPath><clipPath id="clip30"><rect x="108" y="117" width="583" height="295"/></clipPath><clipPath id="clip31"><rect x="108" y="117" width="583" height="295"/></clipPath><clipPath id="clip32"><rect x="108" y="117" width="583" height="295"/></clipPath><clipPath id="clip33"><rect x="108" y="117" width="583" height="295"/></clipPath><clipPath id="clip34"><rect x="108" y="117" width="583" height="295"/></clipPath><clipPath id="clip35"><rect x="108" y="117" width="583" height="295"/></clipPath><clipPath id="clip36"><rect x="108" y="117" width="583" height="295"/></clipPath><clipPath id="clip37"><rect x="108" y="117" width="583" height="295"/></clipPath><clipPath id="clip38"><rect x="108" y="117" width="583" height="295"/></clipPath><clipPath id="clip39"><rect x="108" y="117" width="583" height="295"/></clipPath><clipPath id="clip40"><rect x="108" y="117" width="583" height="295"/></clipPath><clipPath id="clip41"><rect x="108" y="117" width="583" height="295"/></clipPath><clipPath id="clip42"><rect x="108" y="117" width="583" height="295"/></clipPath><clipPath id="clip43"><rect x="108" y="117" width="583" height="295"/></clipPath><clipPath id="clip44"><rect x="108" y="117" width="583" height="295"/></clipPath><clipPath id="clip45"><rect x="108" y="117" width="583" height="295"/></clipPath><clipPath id="clip46"><rect x="108" y="117" width="583" height="295"/></clipPath><clipPath id="clip47"><rect x="108" y="117" width="583" height="295"/></clipPath><clipPath id="clip48"><rect x="108" y="117" width="583" height="295"/></clipPath></defs><g clip-path="url(#clip0)"><rect x="0" y="0" width="800" height="450" fill="#FFFFFF"/><text font-family="Calibri Light,Calibri Light_MSFontService,Arial" font-weight="300" font-size="27" transform="translate(30.5455 61)">Historic Returns S &amp; P 500, US 30 Year Treasury, NCREIF 1978</text><text font-family="Calibri Light,Calibri Light_MSFontService,Arial" font-weight="300" font-size="27" transform="translate(686.608 61)">-</text><text font-family="Calibri Light,Calibri Light_MSFontService,Arial" font-weight="300" font-size="27" transform="translate(700.775 61)">2022</text><path d="M109 126.331C109 121.73 112.73 118 117.331 118L682.669 118C687.27 118 691 121.73 691 126.331L691 404.669C691 409.27 687.27 413 682.669 413L117.331 413C112.73 413 109 409.27 109 404.669Z" fill="#FFFFFF" fill-rule="evenodd"/><g clip-path="url(#clip1)"><rect x="147" y="127" width="534" height="266" fill="#FFFFFF"/></g><g clip-path="url(#clip2)"><path d="M147.5 392.5 680.5 392.5M147.5 363.5 680.5 363.5M147.5 333.5 680.5 333.5M147.5 303.5 680.5 303.5M147.5 274.5 680.5 274.5M147.5 215.5 680.5 215.5M147.5 185.5 680.5 185.5M147.5 156.5 680.5 156.5M147.5 126.5 680.5 126.5" stroke="#808080" stroke-width="0.208333" stroke-linejoin="round" stroke-miterlimit="10" fill="none"/></g><g clip-path="url(#clip3)"><path d="M0 0 6.56168e-05 266" stroke="#808080" stroke-width="0.208333" stroke-linejoin="round" stroke-miterlimit="10" fill="none" fill-rule="evenodd" transform="matrix(1 0 0 -1 147.5 392.5)"/></g><g clip-path="url(#clip4)"><path d="M144.5 392.5 147.5 392.5M144.5 363.5 147.5 363.5M144.5 333.5 147.5 333.5M144.5 303.5 147.5 303.5M144.5 274.5 147.5 274.5M144.5 244.5 147.5 244.5M144.5 215.5 147.5 215.5M144.5 185.5 147.5 185.5M144.5 156.5 147.5 156.5M144.5 126.5 147.5 126.5" stroke="#808080" stroke-width="0.208333" stroke-linejoin="round" stroke-miterlimit="10" fill="none"/></g><g clip-path="url(#clip5)"><path d="M147.5 244.5 680.5 244.5" stroke="#808080" stroke-width="0.208333" stroke-linejoin="round" stroke-miterlimit="10" fill="none" fill-rule="evenodd"/></g><g clip-path="url(#clip6)"><path d="M147.5 244.5 147.5 247.5M159.5 244.5 159.5 247.5M171.5 244.5 171.5 247.5M182.5 244.5 182.5 247.5M194.5 244.5 194.5 247.5M206.5 244.5 206.5 247.5M218.5 244.5 218.5 247.5M230.5 244.5 230.5 247.5M242.5 244.5 242.5 247.5M254.5 244.5 254.5 247.5M265.5 244.5 265.5 247.5M277.5 244.5 277.5 247.5M289.5 244.5 289.5 247.5M301.5 244.5 301.5 247.5M313.5 244.5 313.5 247.5M325.5 244.5 325.5 247.5M337.5 244.5 337.5 247.5M348.5 244.5 348.5 247.5M360.5 244.5 360.5 247.5M372.5 244.5 372.5 247.5M384.5 244.5 384.5 247.5M396.5 244.5 396.5 247.5M408.5 244.5 408.5 247.5M419.5 244.5 419.5 247.5M431.5 244.5 431.5 247.5M443.5 244.5 443.5 247.5M455.5 244.5 455.5 247.5M467.5 244.5 467.5 247.5M479.5 244.5 479.5 247.5M491.5 244.5 491.5 247.5M502.5 244.5 502.5 247.5M514.5 244.5 514.5 247.5M526.5 244.5 526.5 247.5M538.5 244.5 538.5 247.5M550.5 244.5 550.5 247.5M562.5 244.5 562.5 247.5M573.5 244.5 573.5 247.5M585.5 244.5 585.5 247.5M597.5 244.5 597.5 247.5M609.5 244.5 609.5 247.5M621.5 244.5 621.5 247.5M633.5 244.5 633.5 247.5M645.5 244.5 645.5 247.5M656.5 244.5 656.5 247.5M668.5 244.5 668.5 247.5M680.5 244.5 680.5 247.5" stroke="#808080" stroke-width="0.208333" stroke-linejoin="round" stroke-miterlimit="10" fill="none"/></g><g clip-path="url(#clip7)"><path d="M153 282 165 210 177 203 189 205 201 266 213 184 224 208 236 216 248 192 260 158 272 263 284 198 296 214 307 232 319 189 331 223 343 216 355 252 367 141 378 175 390 172 402 155 414 218 426 251 438 296 450 317 461 150 473 232 485 220 497 208 509 257 521 363 533 156 544 194 556 205 568 157 580 211 592 247 604 217 615 188 627 263 639 160 651 197 663 165 675 302" stroke="#000000" stroke-width="3.54167" stroke-linecap="round" stroke-linejoin="round" stroke-miterlimit="10" stroke-dasharray="0 7.08333" fill="none"/></g><g clip-path="url(#clip8)"><path d="M153.5 220.5 165.5 218.5 177.5 212.5 188.5 208.5 200.5 203.5 212.5 212.5 224.5 210.5 236.5 211.5 248.5 217.5 260.5 222.5 271.5 220.5 283.5 218.5 295.5 219.5 307.5 220.5 319.5 221.5 331.5 223.5 342.5 226.5 354.5 222.5 366.5 227.5 378.5 224.5 390.5 227.5 402.5 229.5 414.5 225.5 425.5 228.5 437.5 228.5 449.5 230.5 461.5 230.5 473.5 231.5 485.5 231.5 496.5 230.5 508.5 232.5 520.5 234.5 532.5 231.5 544.5 231.5 556.5 236.5 568.5 233.5 579.5 236.5 591.5 236.5 603.5 235.5 615.5 236.5 627.5 235.5 639.5 238.5 651.5 240.5 662.5 239.5 674.5 233.5" stroke="#767171" stroke-width="2.91667" stroke-linecap="round" stroke-linejoin="round" stroke-miterlimit="10" stroke-dasharray="8.75 11.6667" fill="none"/></g><g clip-path="url(#clip9)"><path d="M153.5 197.5 165.5 184.5 177.5 191.5 188.5 195.5 200.5 217.5 212.5 206.5 224.5 204.5 236.5 211.5 248.5 220.5 260.5 221.5 271.5 216.5 283.5 221.5 295.5 238.5 307.5 261.5 319.5 257.5 331.5 240.5 342.5 226.5 354.5 222.5 366.5 214.5 378.5 203.5 390.5 196.5 402.5 211.5 414.5 208.5 425.5 223.5 437.5 224.5 449.5 218.5 461.5 202.5 473.5 185.5 485.5 195.5 496.5 198.5 508.5 263.5 520.5 294.5 532.5 206.5 544.5 202.5 556.5 213.5 568.5 212.5 579.5 210.5 591.5 205.5 603.5 221.5 615.5 224.5 627.5 224.5 639.5 225.5 651.5 240.5 662.5 192.5 674.5 228.5" stroke="#000000" stroke-width="2.91667" stroke-linecap="round" stroke-linejoin="round" stroke-miterlimit="10" fill="none"/></g><g clip-path="url(#clip10)"><text font-family="Calibri,Calibri_MSFontService,Arial" font-weight="400" font-size="8" transform="translate(116.423 395)">-50.0%</text></g><g clip-path="url(#clip11)"><text font-family="Calibri,Calibri_MSFontService,Arial" font-weight="400" font-size="8" transform="translate(116.423 366)">-40.0%</text></g><g clip-path="url(#clip12)"><text font-family="Calibri,Calibri_MSFontService,Arial" font-weight="400" font-size="8" transform="translate(116.423 336)">-30.0%</text></g><g clip-path="url(#clip13)"><text font-family="Calibri,Calibri_MSFontService,Arial" font-weight="400" font-size="8" transform="translate(116.423 306)">-20.0%</text></g><g clip-path="url(#clip14)"><text font-family="Calibri,Calibri_MSFontService,Arial" font-weight="400" font-size="8" transform="translate(116.423 277)">-10.0%</text></g><g clip-path="url(#clip15)"><text font-family="Calibri,Calibri_MSFontService,Arial" font-weight="400" font-size="8" transform="translate(123.198 247)">0.0%</text></g><g clip-path="url(#clip16)"><text font-family="Calibri,Calibri_MSFontService,Arial" font-weight="400" font-size="8" transform="translate(118.973 218)">10.0%</text></g><g clip-path="url(#clip17)"><text font-family="Calibri,Calibri_MSFontService,Arial" font-weight="400" font-size="8" transform="translate(118.973 188)">20.0%</text></g><g clip-path="url(#clip18)"><text font-family="Calibri,Calibri_MSFontService,Arial" font-weight="400" font-size="8" transform="translate(118.973 159)">30.0%</text></g><g clip-path="url(#clip19)"><text font-family="Calibri,Calibri_MSFontService,Arial" font-weight="400" font-size="8" transform="translate(118.973 129)">40.0%</text></g><g clip-path="url(#clip20)"><text font-family="Calibri,Calibri_MSFontService,Arial" font-weight="400" font-size="8" transform="translate(144.915 258)">1978</text></g><g clip-path="url(#clip21)"><text font-family="Calibri,Calibri_MSFontService,Arial" font-weight="400" font-size="8" transform="translate(168.613 258)">1980</text></g><g clip-path="url(#clip22)"><text font-family="Calibri,Calibri_MSFontService,Arial" font-weight="400" font-size="8" transform="translate(192.31 258)">1982</text></g><g clip-path="url(#clip23)"><text font-family="Calibri,Calibri_MSFontService,Arial" font-weight="400" font-size="8" transform="translate(216.008 258)">1984</text></g><g clip-path="url(#clip24)"><text font-family="Calibri,Calibri_MSFontService,Arial" font-weight="400" font-size="8" transform="translate(239.705 258)">1986</text></g><g clip-path="url(#clip25)"><text font-family="Calibri,Calibri_MSFontService,Arial" font-weight="400" font-size="8" transform="translate(263.403 258)">1988</text></g><g clip-path="url(#clip26)"><text font-family="Calibri,Calibri_MSFontService,Arial" font-weight="400" font-size="8" transform="translate(287.101 258)">1990</text></g><g clip-path="url(#clip27)"><text font-family="Calibri,Calibri_MSFontService,Arial" font-weight="400" font-size="8" transform="translate(310.798 258)">1992</text></g><g clip-path="url(#clip28)"><text font-family="Calibri,Calibri_MSFontService,Arial" font-weight="400" font-size="8" transform="translate(334.496 258)">1994</text></g><g clip-path="url(#clip29)"><text font-family="Calibri,Calibri_MSFontService,Arial" font-weight="400" font-size="8" transform="translate(358.193 258)">1996</text></g><g clip-path="url(#clip30)"><text font-family="Calibri,Calibri_MSFontService,Arial" font-weight="400" font-size="8" transform="translate(381.891 258)">1998</text></g><g clip-path="url(#clip31)"><text font-family="Calibri,Calibri_MSFontService,Arial" font-weight="400" font-size="8" transform="translate(405.589 258)">2000</text></g><g clip-path="url(#clip32)"><text font-family="Calibri,Calibri_MSFontService,Arial" font-weight="400" font-size="8" transform="translate(429.286 258)">2002</text></g><g clip-path="url(#clip33)"><text font-family="Calibri,Calibri_MSFontService,Arial" font-weight="400" font-size="8" transform="translate(452.984 258)">2004</text></g><g clip-path="url(#clip34)"><text font-family="Calibri,Calibri_MSFontService,Arial" font-weight="400" font-size="8" transform="translate(476.681 258)">2006</text></g><g clip-path="url(#clip35)"><text font-family="Calibri,Calibri_MSFontService,Arial" font-weight="400" font-size="8" transform="translate(500.379 258)">2008</text></g><g clip-path="url(#clip36)"><text font-family="Calibri,Calibri_MSFontService,Arial" font-weight="400" font-size="8" transform="translate(524.076 258)">2010</text></g><g clip-path="url(#clip37)"><text font-family="Calibri,Calibri_MSFontService,Arial" font-weight="400" font-size="8" transform="translate(547.774 258)">2012</text></g><g clip-path="url(#clip38)"><text font-family="Calibri,Calibri_MSFontService,Arial" font-weight="400" font-size="8" transform="translate(571.472 258)">2014</text></g><g clip-path="url(#clip39)"><text font-family="Calibri,Calibri_MSFontService,Arial" font-weight="400" font-size="8" transform="translate(595.169 258)">2016</text></g><g clip-path="url(#clip40)"><text font-family="Calibri,Calibri_MSFontService,Arial" font-weight="400" font-size="8" transform="translate(618.867 258)">2018</text></g><g clip-path="url(#clip41)"><text font-family="Calibri,Calibri_MSFontService,Arial" font-weight="400" font-size="8" transform="translate(642.564 258)">2020</text></g><g clip-path="url(#clip42)"><text font-family="Calibri,Calibri_MSFontService,Arial" font-weight="400" font-size="8" transform="translate(666.262 258)">2022</text></g><g clip-path="url(#clip43)"><path d="M297 401 318 401" stroke="#000000" stroke-width="3.54167" stroke-linecap="round" stroke-linejoin="round" stroke-miterlimit="10" stroke-dasharray="0 7.08333" fill="none" fill-rule="evenodd"/></g><g clip-path="url(#clip44)"><text font-family="Calibri,Calibri_MSFontService,Arial" font-weight="700" font-size="12" transform="translate(320.206 404)">S&amp;P 500</text></g><g clip-path="url(#clip45)"><path d="M373.5 400.5 394.5 400.5" stroke="#767171" stroke-width="2.91667" stroke-linecap="round" stroke-linejoin="round" stroke-miterlimit="10" stroke-dasharray="8.75 11.6667" fill="none" fill-rule="evenodd"/></g><g clip-path="url(#clip46)"><text font-family="Calibri,Calibri_MSFontService,Arial" font-weight="700" font-size="12" transform="translate(396.839 404)">30 Year US Treasury</text></g><g clip-path="url(#clip47)"><path d="M506.5 400.5 527.5 400.5" stroke="#000000" stroke-width="2.91667" stroke-linecap="round" stroke-linejoin="round" stroke-miterlimit="10" fill="none" fill-rule="evenodd"/></g><g clip-path="url(#clip48)"><text font-family="Calibri,Calibri_MSFontService,Arial" font-weight="700" font-size="12" transform="translate(530.007 404)">NCREIF</text></g></g></svg>