<svg width="800" height="450" xmlns="http://www.w3.org/2000/svg" xmlns:xlink="http://www.w3.org/1999/xlink" overflow="hidden"><defs><clipPath id="clip0"><rect x="0" y="0" width="800" height="450"/></clipPath><linearGradient x1="0" y1="26" x2="800" y2="26" gradientUnits="userSpaceOnUse" spreadMethod="reflect" id="fill1"><stop offset="0" stop-color="#44546A"/><stop offset="0.85" stop-color="#4472C4"/><stop offset="1" stop-color="#4472C4"/></linearGradient></defs><g clip-path="url(#clip0)"><rect x="0" y="0" width="800" height="450" fill="#FFFFFF"/><rect x="0" y="0" width="800" height="52" fill="url(#fill1)"/><text fill="#3B3838" font-family="Calibri,Calibri_MSFontService,Arial" font-weight="400" font-size="7" transform="translate(39.3334 442)">SitusAMC, Powering Opportunity Everywhere</text><text fill="#3B3838" font-family="Calibri,Calibri_MSFontService,Arial" font-weight="400" font-size="7" transform="translate(13.453 441)">1</text><text fill="#FFFFFF" font-family="Segoe UI Semibold,Segoe UI Semibold_MSFontService,Arial" font-weight="600" font-size="20" transform="translate(44.4705 40)">CRE &amp; Investment Alternatives</text><text fill="#3B3838" font-family="Calibri,Calibri_MSFontService,Arial" font-weight="400" font-size="4" transform="translate(39.5462 366)">1</text><text fill="#3B3838" font-family="Calibri,Calibri_MSFontService,Arial" font-weight="400" font-size="7" transform="translate(41.8379 368)">NCREIF NPI is a property</text><text fill="#3B3838" font-family="Calibri,Calibri_MSFontService,Arial" font-weight="400" font-size="7" transform="translate(107.567 368)">-</text><text fill="#3B3838" font-family="Calibri,Calibri_MSFontService,Arial" font-weight="400" font-size="7" transform="translate(109.65 368)">level (unleveraged) total return index, gross of fees; NCREIF NFI</text><text fill="#3B3838" font-family="Calibri,Calibri_MSFontService,Arial" font-weight="400" font-size="7" transform="translate(281.109 368)">-</text><text fill="#3B3838" font-family="Calibri,Calibri_MSFontService,Arial" font-weight="400" font-size="7" transform="translate(283.192 368)">ODCE is a fund</text><text fill="#3B3838" font-family="Calibri,Calibri_MSFontService,Arial" font-weight="400" font-size="7" transform="translate(322.88 368)">-</text><text fill="#3B3838" font-family="Calibri,Calibri_MSFontService,Arial" font-weight="400" font-size="7" transform="translate(324.963 368)">level (leveraged equit</text><text fill="#3B3838" font-family="Calibri,Calibri_MSFontService,Arial" font-weight="400" font-size="7" transform="translate(383.609 368)">y) total return index, net of fees.</text><text fill="#3B3838" font-family="Calibri,Calibri_MSFontService,Arial" font-weight="400" font-size="4" transform="translate(39.5462 374)">2</text><text fill="#3B3838" font-family="Calibri,Calibri_MSFontService,Arial" font-weight="400" font-size="7" transform="translate(41.8379 376)">Based on total return index and includes the dividend yield.</text><text fill="#3B3838" font-family="Calibri,Calibri_MSFontService,Arial" font-weight="400" font-size="4" transform="translate(39.5462 382)">3</text><text fill="#3B3838" font-family="Calibri,Calibri_MSFontService,Arial" font-weight="400" font-size="7" transform="translate(41.8379 384)">Based on the published data from the Bureau of Labor Statistics (seasonally adjusted).</text><text fill="#3B3838" font-family="Calibri,Calibri_MSFontService,Arial" font-weight="400" font-size="4" transform="translate(39.5462 390)">4</text><text fill="#3B3838" font-family="Calibri,Calibri_MSFontService,Arial" font-weight="400" font-size="7" transform="translate(41.8379 392)">Based on price index and does not include the dividend yield.</text><text fill="#3B3838" font-family="Calibri,Calibri_MSFontService,Arial" font-weight="400" font-size="4" transform="translate(39.5462 398)">5</text><text fill="#3B3838" font-family="Calibri,Calibri_MSFontService,Arial" font-weight="400" font-size="7" transform="translate(41.8379 400)">Based on average quarterly T</text><text fill="#3B3838" font-family="Calibri,Calibri_MSFontService,Arial" font-weight="400" font-size="7" transform="translate(120.9 400)">-</text><text fill="#3B3838" font-family="Calibri,Calibri_MSFontService,Arial" font-weight="400" font-size="7" transform="translate(122.984 400)">bond Rates.</text><text fill="#3B3838" font-family="Calibri,Calibri_MSFontService,Arial" font-weight="400" font-size="4" transform="translate(39.5462 406)">6</text><text fill="#3B3838" font-family="Calibri,Calibri_MSFontService,Arial" font-weight="400" font-size="7" transform="translate(41.8379 408)">2022 averages are not compounded annually except for CPI and NAREIT.</text><text fill="#3B3838" font-family="Calibri,Calibri_MSFontService,Arial" font-weight="400" font-size="7" transform="translate(39.5462 416)">Sources BLS, Federal Reserve Board, S&amp;P, Dow Jones, NCREIF, NAREIT, compiled by SitusAMC, current as of 4Q 2022.</text><path d="M38.4705 70.1901 228.317 70.1901 228.317 104.19 38.4705 104.19Z" fill="#0A1F42" fill-rule="evenodd"/><path d="M228.317 70.1901 309.835 70.1901 309.835 104.19 228.317 104.19Z" fill="#0A1F42" fill-rule="evenodd"/><path d="M309.835 70.1901 393.507 70.1901 393.507 104.19 309.835 104.19Z" fill="#0A1F42" fill-rule="evenodd"/><path d="M393.507 70.1901 477.18 70.1901 477.18 104.19 393.507 104.19Z" fill="#0A1F42" fill-rule="evenodd"/><path d="M477.18 70.1901 560.852 70.1901 560.852 104.19 477.18 104.19Z" fill="#0A1F42" fill-rule="evenodd"/><path d="M560.852 70.1901 644.524 70.1901 644.524 104.19 560.852 104.19Z" fill="#0A1F42" fill-rule="evenodd"/><path d="M644.524 70.1901 728.196 70.1901 728.196 104.19 644.524 104.19Z" fill="#0A1F42" fill-rule="evenodd"/><path d="M38.4705 104.19 228.317 104.19 228.317 127.664 38.4705 127.664Z" fill="#CBCBCB" fill-rule="evenodd"/><path d="M228.317 104.19 309.835 104.19 309.835 127.664 228.317 127.664Z" fill="#CBCBCB" fill-rule="evenodd"/><path d="M309.835 104.19 393.507 104.19 393.507 127.664 309.835 127.664Z" fill="#CBCBCB" fill-rule="evenodd"/><path d="M393.507 104.19 477.18 104.19 477.18 127.664 393.507 127.664Z" fill="#CBCBCB" fill-rule="evenodd"/><path d="M477.18 104.19 560.852 104.19 560.852 127.664 477.18 127.664Z" fill="#CBCBCB" fill-rule="evenodd"/><path d="M560.852 104.19 644.524 104.19 644.524 127.664 560.852 127.664Z" fill="#CBCBCB" fill-rule="evenodd"/><path d="M644.524 104.19 728.196 104.19 728.196 127.664 644.524 127.664Z" fill="#CBCBCB" fill-rule="evenodd"/><path d="M38.4705 127.664 228.317 127.664 228.317 151.138 38.4705 151.138Z" fill="#ECECEC" fill-rule="evenodd"/><path d="M228.317 127.664 309.835 127.664 309.835 151.138 228.317 151.138Z" fill="#ECECEC" fill-rule="evenodd"/><path d="M309.835 127.664 393.507 127.664 393.507 151.138 309.835 151.138Z" fill="#ECECEC" fill-rule="evenodd"/><path d="M393.507 127.664 477.18 127.664 477.18 151.138 393.507 151.138Z" fill="#ECECEC" fill-rule="evenodd"/><path d="M477.18 127.664 560.852 127.664 560.852 151.138 477.18 151.138Z" fill="#ECECEC" fill-rule="evenodd"/><path d="M560.852 127.664 644.524 127.664 644.524 151.138 560.852 151.138Z" fill="#ECECEC" fill-rule="evenodd"/><path d="M644.524 127.664 728.196 127.664 728.196 151.138 644.524 151.138Z" fill="#ECECEC" fill-rule="evenodd"/><path d="M38.4705 151.138 228.317 151.138 228.317 174.612 38.4705 174.612Z" fill="#CBCBCB" fill-rule="evenodd"/><path d="M228.317 151.138 309.835 151.138 309.835 174.612 228.317 174.612Z" fill="#CBCBCB" fill-rule="evenodd"/><path d="M309.835 151.138 393.507 151.138 393.507 174.612 309.835 174.612Z" fill="#CBCBCB" fill-rule="evenodd"/><path d="M393.507 151.138 477.18 151.138 477.18 174.612 393.507 174.612Z" fill="#CBCBCB" fill-rule="evenodd"/><path d="M477.18 151.138 560.852 151.138 560.852 174.612 477.18 174.612Z" fill="#CBCBCB" fill-rule="evenodd"/><path d="M560.852 151.138 644.524 151.138 644.524 174.612 560.852 174.612Z" fill="#CBCBCB" fill-rule="evenodd"/><path d="M644.524 151.138 728.196 151.138 728.196 174.612 644.524 174.612Z" fill="#CBCBCB" fill-rule="evenodd"/><path d="M38.4705 174.612 228.317 174.612 228.317 198.086 38.4705 198.086Z" fill="#ECECEC" fill-rule="evenodd"/><path d="M228.317 174.612 309.835 174.612 309.835 198.086 228.317 198.086Z" fill="#ECECEC" fill-rule="evenodd"/><path d="M309.835 174.612 393.507 174.612 393.507 198.086 309.835 198.086Z" fill="#ECECEC" fill-rule="evenodd"/><path d="M393.507 174.612 477.18 174.612 477.18 198.086 393.507 198.086Z" fill="#ECECEC" fill-rule="evenodd"/><path d="M477.18 174.612 560.852 174.612 560.852 198.086 477.18 198.086Z" fill="#ECECEC" fill-rule="evenodd"/><path d="M560.852 174.612 644.524 174.612 644.524 198.086 560.852 198.086Z" fill="#ECECEC" fill-rule="evenodd"/><path d="M644.524 174.612 728.196 174.612 728.196 198.086 644.524 198.086Z" fill="#ECECEC" fill-rule="evenodd"/><path d="M38.4705 198.086 228.317 198.086 228.317 221.56 38.4705 221.56Z" fill="#CBCBCB" fill-rule="evenodd"/><path d="M228.317 198.086 309.835 198.086 309.835 221.56 228.317 221.56Z" fill="#CBCBCB" fill-rule="evenodd"/><path d="M309.835 198.086 393.507 198.086 393.507 221.56 309.835 221.56Z" fill="#CBCBCB" fill-rule="evenodd"/><path d="M393.507 198.086 477.18 198.086 477.18 221.56 393.507 221.56Z" fill="#CBCBCB" fill-rule="evenodd"/><path d="M477.18 198.086 560.852 198.086 560.852 221.56 477.18 221.56Z" fill="#CBCBCB" fill-rule="evenodd"/><path d="M560.852 198.086 644.524 198.086 644.524 221.56 560.852 221.56Z" fill="#CBCBCB" fill-rule="evenodd"/><path d="M644.524 198.086 728.196 198.086 728.196 221.56 644.524 221.56Z" fill="#CBCBCB" fill-rule="evenodd"/><path d="M38.4705 221.56 228.317 221.56 228.317 245.034 38.4705 245.034Z" fill="#ECECEC" fill-rule="evenodd"/><path d="M228.317 221.56 309.835 221.56 309.835 245.034 228.317 245.034Z" fill="#ECECEC" fill-rule="evenodd"/><path d="M309.835 221.56 393.507 221.56 393.507 245.034 309.835 245.034Z" fill="#ECECEC" fill-rule="evenodd"/><path d="M393.507 221.56 477.18 221.56 477.18 245.034 393.507 245.034Z" fill="#ECECEC" fill-rule="evenodd"/><path d="M477.18 221.56 560.852 221.56 560.852 245.034 477.18 245.034Z" fill="#ECECEC" fill-rule="evenodd"/><path d="M560.852 221.56 644.524 221.56 644.524 245.034 560.852 245.034Z" fill="#ECECEC" fill-rule="evenodd"/><path d="M644.524 221.56 728.196 221.56 728.196 245.034 644.524 245.034Z" fill="#ECECEC" fill-rule="evenodd"/><path d="M38.4705 245.034 228.317 245.034 228.317 268.508 38.4705 268.508Z" fill="#CBCBCB" fill-rule="evenodd"/><path d="M228.317 245.034 309.835 245.034 309.835 268.508 228.317 268.508Z" fill="#CBCBCB" fill-rule="evenodd"/><path d="M309.835 245.034 393.507 245.034 393.507 268.508 309.835 268.508Z" fill="#CBCBCB" fill-rule="evenodd"/><path d="M393.507 245.034 477.18 245.034 477.18 268.508 393.507 268.508Z" fill="#CBCBCB" fill-rule="evenodd"/><path d="M477.18 245.034 560.852 245.034 560.852 268.508 477.18 268.508Z" fill="#CBCBCB" fill-rule="evenodd"/><path d="M560.852 245.034 644.524 245.034 644.524 268.508 560.852 268.508Z" fill="#CBCBCB" fill-rule="evenodd"/><path d="M644.524 245.034 728.196 245.034 728.196 268.508 644.524 268.508Z" fill="#CBCBCB" fill-rule="evenodd"/><path d="M38.4705 268.508 228.317 268.508 228.317 291.982 38.4705 291.982Z" fill="#ECECEC" fill-rule="evenodd"/><path d="M228.317 268.508 309.835 268.508 309.835 291.982 228.317 291.982Z" fill="#ECECEC" fill-rule="evenodd"/><path d="M309.835 268.508 393.507 268.508 393.507 291.982 309.835 291.982Z" fill="#ECECEC" fill-rule="evenodd"/><path d="M393.507 268.508 477.18 268.508 477.18 291.982 393.507 291.982Z" fill="#ECECEC" fill-rule="evenodd"/><path d="M477.18 268.508 560.852 268.508 560.852 291.982 477.18 291.982Z" fill="#ECECEC" fill-rule="evenodd"/><path d="M560.852 268.508 644.524 268.508 644.524 291.982 560.852 291.982Z" fill="#ECECEC" fill-rule="evenodd"/><path d="M644.524 268.508 728.196 268.508 728.196 291.982 644.524 291.982Z" fill="#ECECEC" fill-rule="evenodd"/><path d="M38.4705 291.982 228.317 291.982 228.317 316.909 38.4705 316.909Z" fill="#0A1F42" fill-rule="evenodd"/><path d="M228.317 291.982 309.835 291.982 309.835 316.909 228.317 316.909Z" fill="#0A1F42" fill-rule="evenodd"/><path d="M309.835 291.982 393.507 291.982 393.507 316.909 309.835 316.909Z" fill="#0A1F42" fill-rule="evenodd"/><path d="M393.507 291.982 477.18 291.982 477.18 316.909 393.507 316.909Z" fill="#0A1F42" fill-rule="evenodd"/><path d="M477.18 291.982 560.852 291.982 560.852 316.909 477.18 316.909Z" fill="#0A1F42" fill-rule="evenodd"/><path d="M560.852 291.982 644.524 291.982 644.524 316.909 560.852 316.909Z" fill="#0A1F42" fill-rule="evenodd"/><path d="M644.524 291.982 728.196 291.982 728.196 316.909 644.524 316.909Z" fill="#0A1F42" fill-rule="evenodd"/><path d="M38.4705 316.909 228.317 316.909 228.317 341.836 38.4705 341.836Z" fill="#ECECEC" fill-rule="evenodd"/><path d="M228.317 316.909 309.835 316.909 309.835 341.836 228.317 341.836Z" fill="#ECECEC" fill-rule="evenodd"/><path d="M309.835 316.909 393.507 316.909 393.507 341.836 309.835 341.836Z" fill="#ECECEC" fill-rule="evenodd"/><path d="M393.507 316.909 477.18 316.909 477.18 341.836 393.507 341.836Z" fill="#ECECEC" fill-rule="evenodd"/><path d="M477.18 316.909 560.852 316.909 560.852 341.836 477.18 341.836Z" fill="#ECECEC" fill-rule="evenodd"/><path d="M560.852 316.909 644.524 316.909 644.524 341.836 560.852 341.836Z" fill="#ECECEC" fill-rule="evenodd"/><path d="M644.524 316.909 728.196 316.909 728.196 341.836 644.524 341.836Z" fill="#ECECEC" fill-rule="evenodd"/><path d="M228.317 69.7734 228.317 342.253" stroke="#FFFFFF" stroke-width="0.833333" stroke-linejoin="round" stroke-miterlimit="10" fill="none" fill-rule="evenodd"/><path d="M309.835 69.7734 309.835 342.253" stroke="#FFFFFF" stroke-width="0.833333" stroke-linejoin="round" stroke-miterlimit="10" fill="none" fill-rule="evenodd"/><path d="M393.507 69.7734 393.507 342.253" stroke="#FFFFFF" stroke-width="0.833333" stroke-linejoin="round" stroke-miterlimit="10" fill="none" fill-rule="evenodd"/><path d="M477.18 69.7734 477.18 342.253" stroke="#FFFFFF" stroke-width="0.833333" stroke-linejoin="round" stroke-miterlimit="10" fill="none" fill-rule="evenodd"/><path d="M560.852 69.7734 560.852 342.253" stroke="#FFFFFF" stroke-width="0.833333" stroke-linejoin="round" stroke-miterlimit="10" fill="none" fill-rule="evenodd"/><path d="M644.524 69.7734 644.524 342.253" stroke="#FFFFFF" stroke-width="0.833333" stroke-linejoin="round" stroke-miterlimit="10" fill="none" fill-rule="evenodd"/><path d="M38.0538 104.19 728.613 104.19" stroke="#FFFFFF" stroke-width="2.5" stroke-linejoin="round" stroke-miterlimit="10" fill="none" fill-rule="evenodd"/><path d="M38.0538 127.664 728.613 127.664" stroke="#FFFFFF" stroke-width="0.833333" stroke-linejoin="round" stroke-miterlimit="10" fill="none" fill-rule="evenodd"/><path d="M38.0538 151.138 728.613 151.138" stroke="#FFFFFF" stroke-width="0.833333" stroke-linejoin="round" stroke-miterlimit="10" fill="none" fill-rule="evenodd"/><path d="M38.0538 174.612 728.613 174.612" stroke="#FFFFFF" stroke-width="0.833333" stroke-linejoin="round" stroke-miterlimit="10" fill="none" fill-rule="evenodd"/><path d="M38.0538 198.086 728.613 198.086" stroke="#FFFFFF" stroke-width="0.833333" stroke-linejoin="round" stroke-miterlimit="10" fill="none" fill-rule="evenodd"/><path d="M38.0538 221.56 728.613 221.56" stroke="#FFFFFF" stroke-width="0.833333" stroke-linejoin="round" stroke-miterlimit="10" fill="none" fill-rule="evenodd"/><path d="M38.0538 245.034 728.613 245.034" stroke="#FFFFFF" stroke-width="0.833333" stroke-linejoin="round" stroke-miterlimit="10" fill="none" fill-rule="evenodd"/><path d="M38.0538 268.508 728.613 268.508" stroke="#FFFFFF" stroke-width="0.833333" stroke-linejoin="round" stroke-miterlimit="10" fill="none" fill-rule="evenodd"/><path d="M38.0538 291.982 728.613 291.982" stroke="#FFFFFF" stroke-width="0.833333" stroke-linejoin="round" stroke-miterlimit="10" fill="none" fill-rule="evenodd"/><path d="M38.0538 316.909 728.613 316.909" stroke="#FFFFFF" stroke-width="0.833333" stroke-linejoin="round" stroke-miterlimit="10" fill="none" fill-rule="evenodd"/><path d="M38.4705 69.7734 38.4705 342.253" stroke="#FFFFFF" stroke-width="0.833333" stroke-linejoin="round" stroke-miterlimit="10" fill="none" fill-rule="evenodd"/><path d="M728.196 69.7734 728.196 342.253" stroke="#FFFFFF" stroke-width="0.833333" stroke-linejoin="round" stroke-miterlimit="10" fill="none" fill-rule="evenodd"/><path d="M38.0538 70.1901 728.613 70.1901" stroke="#FFFFFF" stroke-width="0.833333" stroke-linejoin="round" stroke-miterlimit="10" fill="none" fill-rule="evenodd"/><path d="M38.0538 341.836 728.613 341.836" stroke="#FFFFFF" stroke-width="0.833333" stroke-linejoin="round" stroke-miterlimit="10" fill="none" fill-rule="evenodd"/><text fill="#FFFFFF" font-family="Calibri,Calibri_MSFontService,Arial" font-weight="700" font-size="12" transform="translate(668.233 84)">15</text><text fill="#FFFFFF" font-family="Calibri,Calibri_MSFontService,Arial" font-weight="700" font-size="12" transform="translate(680.108 84)">-</text><text fill="#FFFFFF" font-family="Calibri,Calibri_MSFontService,Arial" font-weight="700" font-size="12" transform="translate(683.65 84)">Year</text><text fill="#FFFFFF" font-family="Calibri,Calibri_MSFontService,Arial" font-weight="700" font-size="12" transform="translate(668.716 98)">Trailing</text><text fill="#FFFFFF" font-family="Calibri,Calibri_MSFontService,Arial" font-weight="700" font-size="12" transform="translate(584.561 84)">10</text><text fill="#FFFFFF" font-family="Calibri,Calibri_MSFontService,Arial" font-weight="700" font-size="12" transform="translate(596.436 84)">-</text><text fill="#FFFFFF" font-family="Calibri,Calibri_MSFontService,Arial" font-weight="700" font-size="12" transform="translate(599.977 84)">Year</text><text fill="#FFFFFF" font-family="Calibri,Calibri_MSFontService,Arial" font-weight="700" font-size="12" transform="translate(585.044 98)">Trailing</text><text fill="#FFFFFF" font-family="Calibri,Calibri_MSFontService,Arial" font-weight="700" font-size="12" transform="translate(484.911 91)">5</text><text fill="#FFFFFF" font-family="Calibri,Calibri_MSFontService,Arial" font-weight="700" font-size="12" transform="translate(490.849 91)">-</text><text fill="#FFFFFF" font-family="Calibri,Calibri_MSFontService,Arial" font-weight="700" font-size="12" transform="translate(494.391 91)">Year Trailing</text><text fill="#FFFFFF" font-family="Calibri,Calibri_MSFontService,Arial" font-weight="700" font-size="12" transform="translate(401.239 91)">3</text><text fill="#FFFFFF" font-family="Calibri,Calibri_MSFontService,Arial" font-weight="700" font-size="12" transform="translate(407.177 91)">-</text><text fill="#FFFFFF" font-family="Calibri,Calibri_MSFontService,Arial" font-weight="700" font-size="12" transform="translate(410.718 91)">Year Trailing</text><text fill="#FFFFFF" font-family="Calibri,Calibri_MSFontService,Arial" font-weight="700" font-size="12" transform="translate(339.796 91)">2022</text><text fill="#FFFFFF" font-family="Calibri,Calibri_MSFontService,Arial" font-weight="700" font-size="12" transform="translate(96.0647 91)">Market Indexes</text><text font-family="Calibri Light,Calibri Light_MSFontService,Arial" font-weight="300" font-size="10" transform="translate(676.516 120)">6.5%</text><text font-family="Calibri Light,Calibri Light_MSFontService,Arial" font-weight="300" font-size="10" transform="translate(592.844 120)">8.8%</text><text font-family="Calibri Light,Calibri Light_MSFontService,Arial" font-weight="300" font-size="10" transform="translate(509.172 120)">7.5%</text><text font-family="Calibri Light,Calibri Light_MSFontService,Arial" font-weight="300" font-size="10" transform="translate(425.5 120)">8.1%</text><text font-family="Calibri Light,Calibri Light_MSFontService,Arial" font-weight="300" font-size="10" transform="translate(341.827 120)">5.5%</text><text font-family="Calibri,Calibri_MSFontService,Arial" font-weight="400" font-size="10" transform="translate(50.5538 120)">NCREIF NPI</text><text font-family="Calibri,Calibri_MSFontService,Arial" font-weight="400" font-size="7" transform="translate(96.1788 117)">1</text><text font-family="Calibri Light,Calibri Light_MSFontService,Arial" font-weight="300" font-size="10" transform="translate(676.516 143)">5.3%</text><text font-family="Calibri Light,Calibri Light_MSFontService,Arial" font-weight="300" font-size="10" transform="translate(592.844 143)">9.1%</text><text font-family="Calibri Light,Calibri Light_MSFontService,Arial" font-weight="300" font-size="10" transform="translate(509.172 143)">7.7%</text><text font-family="Calibri Light,Calibri Light_MSFontService,Arial" font-weight="300" font-size="10" transform="translate(425.5 143)">9.0%</text><text font-family="Calibri Light,Calibri Light_MSFontService,Arial" font-weight="300" font-size="10" transform="translate(341.827 143)">6.5%</text><text font-family="Calibri,Calibri_MSFontService,Arial" font-weight="400" font-size="10" transform="translate(50.5538 144)">NCREIF NFI</text><text font-family="Calibri,Calibri_MSFontService,Arial" font-weight="400" font-size="10" transform="translate(95.5538 144)">-</text><text font-family="Calibri,Calibri_MSFontService,Arial" font-weight="400" font-size="10" transform="translate(98.5746 144)">ODCE</text><text font-family="Calibri,Calibri_MSFontService,Arial" font-weight="400" font-size="7" transform="translate(121.595 141)">1</text><text font-family="Calibri Light,Calibri Light_MSFontService,Arial" font-weight="300" font-size="10" transform="translate(676.516 167)">6.6%</text><text font-family="Calibri Light,Calibri Light_MSFontService,Arial" font-weight="300" font-size="10" transform="translate(592.844 167)">7.1%</text><text font-family="Calibri Light,Calibri Light_MSFontService,Arial" font-weight="300" font-size="10" transform="translate(509.172 167)">4.4%</text><text font-family="Calibri Light,Calibri Light_MSFontService,Arial" font-weight="300" font-size="10" transform="translate(425.5 167)">0.2%</text><text font-family="Calibri Light,Calibri Light_MSFontService,Arial" font-weight="300" font-size="10" transform="translate(337.765 167)">-</text><text font-family="Calibri Light,Calibri Light_MSFontService,Arial" font-weight="300" font-size="10" transform="translate(340.786 167)">24.9%</text><text font-family="Calibri,Calibri_MSFontService,Arial" font-weight="400" font-size="10" transform="translate(50.5538 167)">NAREIT (All Equity REITS)</text><text font-family="Calibri,Calibri_MSFontService,Arial" font-weight="400" font-size="7" transform="translate(151.4 164)">2</text><text font-family="Calibri Light,Calibri Light_MSFontService,Arial" font-weight="300" font-size="10" transform="translate(676.516 190)">2.3%</text><text font-family="Calibri Light,Calibri Light_MSFontService,Arial" font-weight="300" font-size="10" transform="translate(592.844 190)">2.6%</text><text font-family="Calibri Light,Calibri Light_MSFontService,Arial" font-weight="300" font-size="10" transform="translate(509.172 190)">3.8%</text><text font-family="Calibri Light,Calibri Light_MSFontService,Arial" font-weight="300" font-size="10" transform="translate(425.5 190)">5.0%</text><text font-family="Calibri Light,Calibri Light_MSFontService,Arial" font-weight="300" font-size="10" transform="translate(341.827 190)">7.1%</text><text font-family="Calibri,Calibri_MSFontService,Arial" font-weight="400" font-size="10" transform="translate(50.5538 191)">Consumer Price Index</text><text font-family="Calibri,Calibri_MSFontService,Arial" font-weight="400" font-size="7" transform="translate(138.945 188)">3</text><text font-family="Calibri Light,Calibri Light_MSFontService,Arial" font-weight="300" font-size="10" transform="translate(676.516 214)">9.0%</text><text font-family="Calibri Light,Calibri Light_MSFontService,Arial" font-weight="300" font-size="10" transform="translate(590.292 214)">12.3%</text><text font-family="Calibri Light,Calibri Light_MSFontService,Arial" font-weight="300" font-size="10" transform="translate(509.172 214)">8.4%</text><text font-family="Calibri Light,Calibri Light_MSFontService,Arial" font-weight="300" font-size="10" transform="translate(425.5 214)">7.3%</text><text font-family="Calibri Light,Calibri Light_MSFontService,Arial" font-weight="300" font-size="10" transform="translate(340.317 214)">-</text><text font-family="Calibri Light,Calibri Light_MSFontService,Arial" font-weight="300" font-size="10" transform="translate(343.338 214)">6.9%</text><text font-family="Calibri,Calibri_MSFontService,Arial" font-weight="400" font-size="10" transform="translate(50.5538 214)">Dow Jones Industrial Average</text><text font-family="Calibri,Calibri_MSFontService,Arial" font-weight="400" font-size="7" transform="translate(169.52 211)">2</text><text font-family="Calibri Light,Calibri Light_MSFontService,Arial" font-weight="300" font-size="10" transform="translate(676.516 237)">9.6%</text><text font-family="Calibri Light,Calibri Light_MSFontService,Arial" font-weight="300" font-size="10" transform="translate(590.292 237)">13.2%</text><text font-family="Calibri Light,Calibri Light_MSFontService,Arial" font-weight="300" font-size="10" transform="translate(509.172 237)">8.7%</text><text font-family="Calibri Light,Calibri Light_MSFontService,Arial" font-weight="300" font-size="10" transform="translate(425.5 237)">5.3%</text><text font-family="Calibri Light,Calibri Light_MSFontService,Arial" font-weight="300" font-size="10" transform="translate(337.765 237)">-</text><text font-family="Calibri Light,Calibri Light_MSFontService,Arial" font-weight="300" font-size="10" transform="translate(340.786 237)">33.1%</text><text font-family="Calibri,Calibri_MSFontService,Arial" font-weight="400" font-size="10" transform="translate(50.5538 238)">NASDAQ Composite</text><text font-family="Calibri,Calibri_MSFontService,Arial" font-weight="400" font-size="7" transform="translate(131.854 235)">4</text><text font-family="Calibri Light,Calibri Light_MSFontService,Arial" font-weight="300" font-size="10" transform="translate(676.516 261)">3.0%</text><text font-family="Calibri Light,Calibri Light_MSFontService,Arial" font-weight="300" font-size="10" transform="translate(592.844 261)">6.0%</text><text font-family="Calibri Light,Calibri Light_MSFontService,Arial" font-weight="300" font-size="10" transform="translate(509.172 261)">3.5%</text><text font-family="Calibri Light,Calibri Light_MSFontService,Arial" font-weight="300" font-size="10" transform="translate(425.5 261)">3.0%</text><text font-family="Calibri Light,Calibri Light_MSFontService,Arial" font-weight="300" font-size="10" transform="translate(337.765 261)">-</text><text font-family="Calibri Light,Calibri Light_MSFontService,Arial" font-weight="300" font-size="10" transform="translate(340.786 261)">11.5%</text><text font-family="Calibri,Calibri_MSFontService,Arial" font-weight="400" font-size="10" transform="translate(50.5538 261)">NYSE Composite</text><text font-family="Calibri,Calibri_MSFontService,Arial" font-weight="400" font-size="7" transform="translate(117.237 258)">4</text><text font-family="Calibri Light,Calibri Light_MSFontService,Arial" font-weight="300" font-size="10" transform="translate(676.516 284)">8.8%</text><text font-family="Calibri Light,Calibri Light_MSFontService,Arial" font-weight="300" font-size="10" transform="translate(590.292 284)">12.6%</text><text font-family="Calibri Light,Calibri Light_MSFontService,Arial" font-weight="300" font-size="10" transform="translate(509.172 284)">9.4%</text><text font-family="Calibri Light,Calibri Light_MSFontService,Arial" font-weight="300" font-size="10" transform="translate(425.5 284)">7.7%</text><text font-family="Calibri Light,Calibri Light_MSFontService,Arial" font-weight="300" font-size="10" transform="translate(337.765 284)">-</text><text font-family="Calibri Light,Calibri Light_MSFontService,Arial" font-weight="300" font-size="10" transform="translate(340.786 284)">18.1%</text><text font-family="Calibri,Calibri_MSFontService,Arial" font-weight="400" font-size="10" transform="translate(50.5538 285)">S&amp;P 500</text><text font-family="Calibri,Calibri_MSFontService,Arial" font-weight="400" font-size="7" transform="translate(84.7205 282)">2</text><text fill="#FFFFFF" font-family="Calibri,Calibri_MSFontService,Arial" font-weight="700" font-size="12" transform="translate(666.204 308)">4Q 2007</text><text fill="#FFFFFF" font-family="Calibri,Calibri_MSFontService,Arial" font-weight="700" font-size="12" transform="translate(582.532 308)">4Q 2012</text><text fill="#FFFFFF" font-family="Calibri,Calibri_MSFontService,Arial" font-weight="700" font-size="12" transform="translate(498.859 308)">4Q 2017</text><text fill="#FFFFFF" font-family="Calibri,Calibri_MSFontService,Arial" font-weight="700" font-size="12" transform="translate(415.187 308)">4Q 2019</text><text fill="#FFFFFF" font-family="Calibri,Calibri_MSFontService,Arial" font-weight="700" font-size="12" transform="translate(331.515 308)">4Q 2021</text><text fill="#FFFFFF" font-family="Calibri,Calibri_MSFontService,Arial" font-weight="700" font-size="12" transform="translate(248.92 308)">4Q 2022</text><text font-family="Calibri Light,Calibri Light_MSFontService,Arial" font-weight="300" font-size="10" transform="translate(676.516 333)">4.3%</text><text font-family="Calibri Light,Calibri Light_MSFontService,Arial" font-weight="300" font-size="10" transform="translate(592.844 333)">1.7%</text><text font-family="Calibri Light,Calibri Light_MSFontService,Arial" font-weight="300" font-size="10" transform="translate(509.172 333)">2.4%</text><text font-family="Calibri Light,Calibri Light_MSFontService,Arial" font-weight="300" font-size="10" transform="translate(425.5 333)">1.8%</text><text font-family="Calibri Light,Calibri Light_MSFontService,Arial" font-weight="300" font-size="10" transform="translate(341.827 333)">1.5%</text><text font-family="Calibri Light,Calibri Light_MSFontService,Arial" font-weight="300" font-size="10" transform="translate(259.232 333)">3.8%</text><text font-family="Calibri,Calibri_MSFontService,Arial" font-weight="400" font-size="10" transform="translate(50.5538 334)">10</text><text font-family="Calibri,Calibri_MSFontService,Arial" font-weight="400" font-size="10" transform="translate(60.7621 334)">-</text><text font-family="Calibri,Calibri_MSFontService,Arial" font-weight="400" font-size="10" transform="translate(63.783 334)">Year Treasury Bond</text><text font-family="Calibri,Calibri_MSFontService,Arial" font-weight="400" font-size="7" transform="translate(141.425 331)">5</text></g></svg>